PathFileType	4	(X/Y/Z)	 s11c0303.trc
DataRate	CameraRate	NumFrames	NumMarkers	Units	OrigDataRate	OrigDataStartFrame	OrigNumFrames
200	200	6	48	mm	200	751	2000
Frame#	Time	racr			lacr			c7			jug			rlel			rdr			llel			ldr			s2			lic			ric			lasi			rasi			rpsi			lpsi			rgt			lgt			rth1			rth2			rth3			rth4			rlfc			rmfc			rsh1			rsh2			rsh3			rsh4			rlmal			rcal			rtoe			rmt5			lth1			lth2			lth4			lth3			llfc			lmfc			llmal			lcal			lmt5			lsh1			lsh2			lsh3			lsh4			ltoe			SBIKE			LBIKE			RBIKE			
		X1	Y1	Z1	X2	Y2	Z2	X3	Y3	Z3	X4	Y4	Z4	X5	Y5	Z5	X6	Y6	Z6	X7	Y7	Z7	X8	Y8	Z8	X9	Y9	Z9	X10	Y10	Z10	X11	Y11	Z11	X12	Y12	Z12	X13	Y13	Z13	X14	Y14	Z14	X15	Y15	Z15	X16	Y16	Z16	X17	Y17	Z17	X18	Y18	Z18	X19	Y19	Z19	X20	Y20	Z20	X21	Y21	Z21	X22	Y22	Z22	X23	Y23	Z23	X24	Y24	Z24	X25	Y25	Z25	X26	Y26	Z26	X27	Y27	Z27	X28	Y28	Z28	X29	Y29	Z29	X30	Y30	Z30	X31	Y31	Z31	X32	Y32	Z32	X33	Y33	Z33	X34	Y34	Z34	X35	Y35	Z35	X36	Y36	Z36	X37	Y37	Z37	X38	Y38	Z38	X39	Y39	Z39	X40	Y40	Z40	X41	Y41	Z41	X42	Y42	Z42	X43	Y43	Z43	X44	Y44	Z44	X45	Y45	Z45	X46	Y46	Z46	X47	Y47	Z47	X48	Y48	Z48	
751	3.7550	686.440979	1413.586014	-18.651129	692.932370	1458.626289	-368.700889	634.441325	1553.088897	-191.078593	669.236004	1381.105131	-212.433638	582.969270	1130.068896	21.175749	787.261430	950.969937	-41.262514	647.476067	1175.890516	-507.818742	816.211705	913.986636	-421.548894	91.396062	1245.980680	-264.211898	312.298288	1289.870948	-449.704080	312.489467	1247.049029	-54.052414	343.974034	1221.136084	-418.514353	348.729495	1185.929374	-96.169872	132.174084	1322.962507	-204.674197	134.503681	1323.304165	-294.978486	241.264167	1107.344088	-44.425392	228.092919	1140.974400	-472.866000	300.408708	986.645959	-40.134886	358.620978	917.417637	-56.399525	372.410189	832.686659	-75.049652	389.990514	933.771772	-65.908053	414.621815	737.765432	-95.414246	407.411539	716.299910	-216.718081	365.603613	582.868655	-74.479519	361.921055	496.120250	-89.962311	317.866634	420.878525	-88.224591	386.038343	491.494724	-121.661351	266.687523	292.839962	-93.725813	199.698734	272.750039	-139.597455	486.133394	236.590018	-128.491600	414.687079	210.349833	-60.445936	341.035247	1046.585712	-487.518769	414.657026	1003.934434	-479.607892	440.014117	1028.041994	-468.111202	460.067122	926.309256	-479.555883	527.898548	818.425202	-459.148095	538.026445	804.411593	-331.463632	168.053209	594.774360	-422.467738	105.504927	611.243192	-382.637716	170.018690	410.466708	-440.981117	426.125698	745.252851	-475.677114	371.223206	683.274514	-453.672453	288.370147	652.386021	-446.896792	391.021642	661.951385	-429.121042	237.539361	340.677125	-373.784809	-203.162548	950.176724	-260.762445	1.365246	82.625931	-460.790049	-15.311541	81.031142	-62.173268	
752	3.7600	687.771559	1416.948831	-20.130210	692.419046	1461.297172	-371.921326	633.699543	1555.761741	-193.115556	670.537834	1383.820990	-214.395973	585.386681	1132.933614	22.267039	788.101826	951.106144	-41.259605	647.483815	1175.841622	-507.469080	816.469951	913.882897	-421.238527	93.159075	1242.600342	-263.991471	312.976645	1289.995007	-448.780140	314.599955	1244.778922	-52.658745	345.271325	1221.526943	-417.252990	351.264093	1184.458233	-95.607744	133.746229	1319.550938	-202.873237	135.196775	1320.843093	-293.801807	242.332353	1104.138751	-44.241892	231.130797	1139.687076	-473.099577	299.945458	983.186045	-39.797582	357.265742	913.378086	-56.065040	370.216097	828.572375	-74.672160	388.893033	929.477089	-65.377782	411.339577	733.337765	-95.390978	405.288374	711.817978	-216.256897	361.778293	578.745720	-74.501464	358.255870	491.914222	-89.849472	314.351632	416.600964	-88.224439	382.545619	487.301554	-121.422567	263.412065	288.482057	-93.815983	196.234762	269.054262	-139.711085	482.427939	230.213200	-128.625592	410.644445	204.716639	-60.626364	345.451279	1047.277155	-488.213146	419.688471	1005.566447	-480.321137	444.679280	1029.994755	-468.615569	466.060859	928.402948	-480.252989	534.121057	822.167224	-459.918735	544.371010	807.700746	-332.284676	173.470521	599.840456	-422.715769	111.138622	616.484997	-382.658358	174.760500	415.322367	-440.756897	432.087329	749.569180	-476.162657	377.078911	687.726402	-454.046868	294.325176	657.238783	-447.289301	396.824676	666.320787	-429.641906	241.810724	345.303619	-373.492340	-203.198641	950.167066	-260.825372	1.388814	82.628733	-460.785381	-15.224824	81.029806	-62.270464	
753	3.7650	689.065345	1420.405670	-21.651315	691.900402	1464.074010	-375.305329	633.000001	1558.576149	-195.646643	671.838463	1386.639984	-216.449377	588.022615	1135.858843	23.499115	788.943334	951.142904	-41.269604	647.534900	1175.733121	-506.833732	816.682636	913.765858	-420.955288	94.946472	1239.858347	-263.383851	313.742549	1290.339075	-447.851650	315.807839	1242.538267	-52.837754	346.527737	1222.078672	-416.081259	353.846667	1183.243550	-94.916442	135.081469	1316.781705	-201.840616	135.996248	1318.884737	-292.539005	243.295889	1101.298007	-44.098259	234.193776	1138.993798	-473.377679	299.285649	980.061515	-39.476605	355.645677	909.785565	-55.738855	367.681922	824.619471	-74.327966	387.446284	925.453251	-64.693861	407.570582	729.253677	-95.269397	403.531051	707.844912	-215.333050	357.620645	574.797425	-74.386391	354.234009	488.012738	-89.678087	310.317428	412.595125	-88.276407	378.742819	483.273703	-121.176558	259.761156	284.491638	-94.189267	192.598373	265.925006	-139.922072	478.320892	224.305276	-128.798163	406.358216	199.162983	-60.860908	349.662448	1048.404550	-488.859435	424.442055	1007.658134	-480.991729	449.057963	1032.299104	-468.966027	471.784380	931.062131	-481.023305	540.141464	826.109766	-460.660446	550.635727	811.379034	-333.219459	178.941107	604.616040	-422.745512	116.803632	621.530735	-382.626051	179.682490	420.183521	-440.467856	438.000681	753.987930	-476.497337	382.824067	692.210512	-454.383361	300.082833	661.866851	-447.248518	402.653046	670.695502	-430.015260	246.317203	349.838640	-373.179033	-203.160051	950.179559	-260.804915	1.398660	82.615576	-460.778984	-15.295685	81.041551	-62.168842	
754	3.7700	690.222130	1423.941549	-23.322737	691.386141	1466.913780	-378.776958	632.483307	1561.291881	-197.988997	673.875708	1389.958078	-218.146105	590.789461	1138.879178	24.706968	789.796586	951.086473	-41.336329	647.603166	1175.717575	-506.470316	816.868054	913.701615	-420.646467	96.602934	1237.990934	-262.518109	314.485765	1290.857068	-446.837507	317.535279	1240.589210	-52.055720	347.806862	1222.704520	-414.922528	356.237253	1182.149382	-94.281112	136.548879	1314.623747	-200.665188	136.916963	1317.490908	-291.106881	244.214496	1098.781962	-43.920060	236.847585	1139.007273	-473.367731	299.097617	977.056789	-40.069093	353.508092	906.492295	-55.386059	364.580036	821.237055	-73.987126	385.932682	921.713580	-64.186735	403.176377	725.473589	-95.243819	399.864276	704.772270	-214.741454	353.086964	571.097144	-74.268705	349.843438	484.355695	-89.497102	306.019070	408.878805	-88.263302	374.492066	479.598590	-120.826438	255.997421	280.667244	-94.248507	189.240533	262.729691	-140.660729	474.100525	218.264682	-128.929535	401.937026	193.858603	-61.117331	353.521720	1049.978210	-489.513697	428.815120	1010.126155	-481.519699	453.048190	1035.009815	-469.162107	476.978094	934.197416	-481.952698	545.951702	830.173147	-461.338859	556.902487	815.238544	-333.597356	184.508781	609.391944	-422.664102	122.481552	626.385395	-382.537873	184.762611	424.825165	-440.151220	443.687013	758.597105	-476.803207	388.493896	696.923149	-454.641937	305.740678	666.623580	-447.339512	408.298515	675.211079	-430.544451	251.083949	354.412297	-372.881892	-203.184034	950.346006	-261.165712	1.406329	82.637666	-460.777992	-15.216664	81.034860	-62.264846	
755	3.7750	691.212551	1427.491878	-25.109373	690.782245	1469.872924	-382.337201	632.057166	1564.084135	-200.630540	675.123996	1392.908266	-220.272794	593.683608	1141.941669	25.858560	790.817914	950.967556	-41.184917	647.715115	1175.800042	-506.121830	817.177269	913.852457	-420.410377	98.176607	1236.969350	-261.499778	315.301129	1291.695915	-445.844348	319.629175	1239.031447	-50.914739	349.043705	1223.528186	-413.788720	358.602097	1181.291379	-93.647034	138.106303	1313.074229	-199.109807	138.030282	1316.586667	-289.524042	245.021786	1096.781823	-43.801924	239.259599	1139.806880	-473.234110	297.964977	974.878851	-39.732882	351.215832	903.486351	-54.928528	361.006939	818.176771	-73.578767	384.035434	918.381956	-63.536908	398.231589	722.095900	-95.038151	397.165622	701.727747	-213.959119	348.052220	567.765097	-74.152862	345.090425	480.865319	-89.338816	301.429721	405.416037	-88.245125	369.969191	476.201513	-120.394447	252.081634	276.997470	-94.418954	185.257323	259.947570	-140.953878	469.618696	212.816256	-128.929810	397.194534	188.721120	-61.288213	356.999157	1051.871639	-489.973752	432.743539	1012.965671	-481.925703	456.573300	1038.062648	-469.088978	481.844830	937.591097	-482.696609	551.458100	834.301615	-461.971290	563.006155	819.430050	-333.801998	190.103293	613.937229	-422.496343	128.141614	631.045166	-382.375205	190.006356	429.292402	-439.903712	449.163104	763.327617	-477.104557	394.054023	701.589819	-454.845810	311.309085	671.239315	-447.077756	413.986113	679.687188	-430.922902	256.009829	358.749408	-372.607989	-203.184065	950.359456	-261.099070	1.414734	82.637944	-460.772980	-15.273025	81.024860	-62.172784	
756	3.7800	692.083843	1431.055460	-27.035514	690.249849	1472.862285	-385.952211	631.773344	1566.946099	-203.365704	676.331138	1395.753601	-222.415162	596.751601	1145.118239	26.979468	791.899130	950.606505	-41.212135	647.878418	1176.009160	-505.718938	817.636298	914.030182	-420.264065	99.791293	1236.319416	-260.423550	316.193807	1292.735499	-444.691704	321.528307	1237.791776	-50.126854	350.290283	1224.455406	-412.687980	360.975103	1180.812440	-93.039929	139.776256	1312.112093	-197.316013	139.212200	1316.057082	-287.814485	245.831487	1095.263501	-43.588281	241.493216	1141.219783	-472.898824	296.511916	973.066538	-39.399974	348.530015	900.900558	-54.468885	356.948793	815.508773	-73.313125	381.860794	915.257569	-62.817869	392.759132	718.940242	-94.776114	393.469071	698.913712	-213.372772	342.607771	564.734119	-74.053464	340.058969	477.738345	-89.076331	296.511457	402.227939	-88.187976	365.121614	473.218766	-119.975605	247.930427	273.609601	-94.597037	181.229023	257.704159	-141.133042	465.017153	207.015081	-129.048074	392.322349	183.770161	-61.442629	360.026227	1054.104034	-490.215313	436.159247	1016.020011	-482.136014	459.602840	1041.338137	-468.867760	486.432790	941.329556	-483.175159	556.809535	838.485882	-462.505147	568.971582	823.590635	-333.921052	195.572010	618.263258	-422.205070	133.826864	635.489264	-382.097214	195.492905	433.775471	-439.672306	454.552655	768.109830	-477.183279	399.474441	706.305327	-454.940922	316.800639	676.019910	-447.041790	419.500142	684.367866	-431.169444	261.263701	363.039443	-372.354688	-203.184071	950.359618	-261.099125	1.428104	82.630312	-460.783040	-15.261873	81.015862	-62.159728	
